<svg width="24" height="24" viewBox="0 0 24 24" fill="currentColor" xmlns="http://www.w3.org/2000/svg">
<path opacity="0.8" fill-rule="evenodd" clip-rule="evenodd" d="M0 12C0 5.37258 5.37258 0 12 0C18.6274 0 24 5.37258 24 12C24 18.6274 18.6274 24 12 24C5.37258 24 0 18.6274 0 12Z" fill="currentColor"/>
<path d="M10.7113 6.16679C10.6285 6.16944 10.55 6.20511 10.4923 6.26671L8.89948 7.91737C8.77518 8.04648 8.77518 8.25517 8.89948 8.38427L10.4923 10.0349C10.5517 10.0992 10.6333 10.1357 10.7189 10.1366C10.8046 10.1375 10.887 10.1027 10.9476 10.0399C11.0082 9.97716 11.0418 9.89168 11.0409 9.80296C11.0401 9.71423 11.0048 9.62964 10.9428 9.56803L9.89383 8.48095H14.5522C16.6688 8.48095 18.3629 10.2365 18.3629 12.4302C18.3629 13.7746 17.7244 14.9524 16.7442 15.6655C16.6737 15.7153 16.6253 15.7922 16.61 15.8792C16.5946 15.9661 16.6137 16.056 16.6629 16.1282C16.7118 16.2007 16.7869 16.2497 16.8711 16.2641C16.9553 16.2786 17.0414 16.2576 17.1106 16.2057C18.2551 15.373 19 13.9918 19 12.4302C19 9.88225 17.0104 7.8204 14.5519 7.8204H9.89354L10.9425 6.73332C11.0366 6.6387 11.0651 6.49338 11.0139 6.36811C10.9627 6.24284 10.8424 6.16296 10.711 6.16679H10.7113ZM7.08456 8.59591C7.07375 8.59562 7.06322 8.59562 7.05242 8.59621C6.99155 8.59974 6.93296 8.62156 6.88375 8.65869C5.74292 9.49198 5 10.8715 5 12.4305C5 14.9784 6.98927 17.0402 9.44813 17.0402H14.1033L13.0575 18.1238C12.9972 18.1857 12.9631 18.2697 12.9631 18.3575C12.9631 18.4453 12.9963 18.5296 13.0564 18.5918C13.1164 18.654 13.1974 18.6888 13.2825 18.6885C13.3672 18.6885 13.4486 18.6531 13.508 18.5907L15.1008 16.94C15.1608 16.8781 15.1944 16.7941 15.1944 16.7065C15.1944 16.619 15.1608 16.535 15.1008 16.4728L13.508 14.8221C13.448 14.7582 13.3655 14.7222 13.2793 14.7222C13.1496 14.7222 13.033 14.8039 12.9841 14.9283C12.9355 15.0529 12.9642 15.1956 13.0575 15.2893L14.1096 16.3797H9.44813C7.33144 16.3797 5.6374 14.6241 5.6374 12.4305C5.6374 11.0881 6.27366 9.91231 7.25094 9.1987C7.36443 9.11852 7.41534 8.97203 7.3778 8.83526C7.33997 8.69849 7.22193 8.6021 7.08484 8.59621L7.08456 8.59591Z" fill="white" stroke="white" stroke-width="0.75" stroke-miterlimit="10"/>
</svg>
