<svg width="24" height="24" viewBox="0 0 24 24" fill="currentColor" xmlns="http://www.w3.org/2000/svg">
<g opacity="0.8">
<path fill-rule="evenodd" clip-rule="evenodd" d="M0 12C0 5.37258 5.37258 0 12 0C18.6274 0 24 5.37258 24 12C24 18.6274 18.6274 24 12 24C5.37258 24 0 18.6274 0 12Z" fill="currentColor"/>
<path fill-rule="evenodd" clip-rule="evenodd" d="M10.0821 8H8.68751C8.30781 8 8 8.30781 8 8.68751V15.5626C8 15.9423 8.30781 16.2501 8.68751 16.2501H10.0821C10.4618 16.2501 10.7696 15.9423 10.7696 15.5626V8.68751C10.7696 8.30781 10.4618 8 10.0821 8ZM15.5626 8H14.1836C13.8039 8 13.4961 8.30781 13.4961 8.68751V15.5626C13.4961 15.9423 13.8039 16.2501 14.1836 16.2501H15.5626C15.9423 16.2501 16.2501 15.9423 16.2501 15.5626V8.68751C16.2501 8.30781 15.9423 8 15.5626 8Z" fill="white"/>
</g>
</svg>
