<svg width="24" height="24" viewBox="0 0 24 24" fill="currentColor" xmlns="http://www.w3.org/2000/svg">
<path fill-rule="evenodd" clip-rule="evenodd" d="M0 12C0 5.37258 5.37258 0 12 0C18.6274 0 24 5.37258 24 12C24 18.6274 18.6274 24 12 24C5.37258 24 0 18.6274 0 12Z" fill="currentColor"/>
<path fill-rule="evenodd" clip-rule="evenodd" d="M16.1526 11.8936L10.2746 8.13387C9.9081 7.89944 9.403 7.98088 9.14643 8.31579C9.05112 8.44021 9 8.5884 9 8.74027V16.2598C9 16.6686 9.36268 17 9.81007 17C9.97627 17 10.1385 16.9533 10.2746 16.8662L16.1526 13.1064C16.5192 12.872 16.6083 12.4105 16.3517 12.0756C16.2975 12.0048 16.2301 11.9432 16.1526 11.8936Z" fill="white"/>
</svg>
